<svg xmlns="http://www.w3.org/2000/svg" viewBox="0 0 32 24"><defs><style>.cls-2{fill:#fff}</style></defs><g id="Layer_2" data-name="Layer 2"><g id="Layer_1-2" data-name="Layer 1"><path fill="#d81e00" d="M0 0h32v24H0z"/><path class="cls-2" d="M0 8h32v8.07H0z"/><path d="M0 15.58l7.16-3.52L0 8.48v7.1zM32 8.48L24.84 12 32 15.58v-7.1z"/><circle class="cls-2" cx="16" cy="12.03" r="8.85"/><circle cx="16" cy="12" r="7"/><path stroke="#000" stroke-miterlimit="10" stroke-width=".25" fill="#fff" d="M16 8.49l4.92-3.29-1.6 5.7 4.65 3.67-5.92.23L16 20.36l-2.05-5.56-5.92-.23 4.65-3.67-1.6-5.7L16 8.49z"/><path d="M15.06 9.26l-1.62-.71.42 1.73 1.2-1.02zM18.12 10.31l.43-1.72-1.63.7 1.2 1.02zM18.32 13.87l1.75-.25-1.26-1.25-.49 1.5zM13.03 12.18l-1.06 1.41 1.77-.01-.71-1.4zM15.15 14.7l.76 1.6.82-1.58-1.58-.02zM16.03 10.48l-1.44 1.05.55 1.69h1.78l.55-1.69-1.44-1.05z"/></g></g></svg>